IKResults-ET3
version=1
nRows=19
nColumns=24
inDegrees=yes

Units are S.I. units (second, meters, Newtons, ...)
If the header above contains a line with 'inDegrees', this indicates whether rotational values are in degrees (yes) or radians (no).

endheader
time	pelvis_tilt	pelvis_list	pelvis_rotation	pelvis_tx	pelvis_ty	pelvis_tz	hip_flexion_r	hip_adduction_r	hip_rotation_r	knee_angle_r	ankle_angle_r	subtalar_angle_r	mtp_angle_r	hip_flexion_l	hip_adduction_l	hip_rotation_l	knee_angle_l	ankle_angle_l	subtalar_angle_l	mtp_angle_l	lumbar_extension	lumbar_bending	lumbar_rotation
      2.29000000	      5.91246168	     -0.65222589	    181.38774147	      3.98026059	      0.97025592	     -0.12702971	     35.44201556	     -0.86535189	      2.92623992	    -10.21838691	     14.46743426	      6.30858549	      0.00000000	     -5.69718622	      4.27892890	      6.97752736	    -18.39544011	     25.91623823	      9.59136048	      0.00000000	    -16.42122139	     -3.04550232	     -2.33094451
      2.30000000	      5.97562618	     -0.61496032	    181.80275507	      3.97086777	      0.96872852	     -0.12755911	     35.40825292	     -0.98779953	      2.67858137	    -10.77503067	     14.59601807	      5.49029115	      0.00000000	     -6.04671971	      4.12667039	      7.25713832	    -18.62092094	     26.83923702	     10.70063834	      0.00000000	    -16.37679278	     -2.87959328	     -2.48706755
      2.31000000	      5.93958286	     -0.66973902	    182.14170276	      3.96110955	      0.96746659	     -0.12831887	     35.22330512	     -1.17191736	      2.66115174	    -11.63389932	     14.62224420	      5.51989052	      0.00000000	     -6.47998612	      4.08042336	      7.38840482	    -19.04811690	     25.84655789	      9.70996948	      0.00000000	    -16.45197672	     -2.82578573	     -2.63844159
      2.32000000	      5.99748924	     -0.64316892	    182.54806799	      3.95095261	      0.96616570	     -0.12885418	     35.07371339	     -1.28729466	      2.46100982	    -12.60147940	     14.76754237	      5.08050913	      0.00000000	     -6.78540680	      3.93793295	      7.52407355	    -19.51384052	     25.69750544	      9.78069658	      0.00000000	    -16.33945579	     -2.58600667	     -2.71999229
      2.33000000	      6.09914871	     -0.52339487	    182.96215000	      3.94060330	      0.96508111	     -0.12974086	     34.79228603	     -1.25399687	      2.92377068	    -13.37732766	     14.93320296	      2.47884514	      0.00000000	     -7.00798377	      3.69518332	      7.81378053	    -20.00750673	     25.53153920	      9.47944683	      0.00000000	    -16.20717880	     -2.39395659	     -2.94736684
      2.34000000	      6.21784610	     -0.35942906	    183.39486674	      3.92976907	      0.96412950	     -0.13050564	     34.45190637	     -1.23540301	      2.39534709	    -13.52860755	     14.54395676	      2.20876073	      0.00000000	     -7.20007740	      3.39806681	      8.04518851	    -20.56134886	     25.22432256	      9.46252535	      0.00000000	    -15.98326857	     -1.99654864	     -2.99895535
      2.35000000	      6.52331128	     -0.17236870	    183.76895671	      3.91916025	      0.96323799	     -0.13138085	     34.25072443	     -1.16133355	      1.79403967	    -13.23847025	     13.15222830	      0.35480112	      0.00000000	     -7.07441766	      3.09455529	      8.13036852	    -21.26695863	     24.70868175	      9.19228951	      0.00000000	    -15.60044031	     -1.66170332	     -3.14741037
      2.36000000	      6.77178915	      0.08137414	    184.11375439	      3.90812221	      0.96277097	     -0.13238836	     33.89486255	     -1.03924892	      1.16394905	    -12.87427042	     11.51933363	      0.08889506	      0.00000000	     -6.96244796	      2.71699584	      8.22439481	    -22.05683122	     23.97314504	      9.00209670	      0.00000000	    -15.29903930	     -1.19541709	     -3.17316880
      2.37000000	      6.94437220	      0.41833708	    184.39377525	      3.89678380	      0.96267949	     -0.13355605	     33.48176337	     -0.77546629	      0.48036662	    -12.74343465	     10.21797124	      0.57941840	      0.00000000	     -6.87782935	      2.25915368	      8.27397232	    -22.93750270	     23.14962563	      8.79344358	      0.00000000	    -15.02148931	     -0.64052156	     -3.13997414
      2.38000000	      7.07676538	      0.88211720	    184.57116026	      3.88517256	      0.96312057	     -0.13521641	     32.98353116	     -0.27627343	      0.03193171	    -12.62479683	      9.47530533	      0.91458142	      0.00000000	     -6.76464552	      1.61010033	      8.00582193	    -23.91692899	     22.23358946	      8.84887824	      0.00000000	    -14.78986380	      0.00141440	     -3.06303380
      2.39000000	      7.18395032	      1.40104126	    184.79855525	      3.87363364	      0.96394645	     -0.13660737	     32.54337472	      0.27602772	     -0.23203234	    -12.88267179	      9.09292276	      1.05310550	      0.00000000	     -6.53658007	      0.93539326	      7.93994325	    -25.02191066	     21.12215037	      8.93444101	      0.00000000	    -14.62442034	      0.77751974	     -2.96850249
      2.40000000	      7.25752213	      1.90461426	    184.88406798	      3.86179408	      0.96501308	     -0.13820004	     32.09800334	      0.88176502	     -0.75933943	    -13.01044462	      8.60467712	      1.22873991	      0.00000000	     -6.26774287	      0.28632140	      7.66489336	    -26.27694409	     19.82455327	      9.02673559	      0.00000000	    -14.47238561	      1.51934043	     -2.85274299
      2.41000000	      7.29325522	      2.36393721	    184.89909745	      3.84976695	      0.96630185	     -0.13999033	     31.60974794	      1.51337493	     -0.47852451	    -13.44888287	      8.70245523	      0.96786008	      0.00000000	     -5.92995800	     -0.34521175	      7.21823339	    -27.69300600	     18.13745468	      9.15174994	      0.00000000	    -14.35253061	      2.19281723	     -2.72009132
      2.42000000	      7.33209868	      2.76473511	    184.84818456	      3.83766481	      0.96790861	     -0.14180170	     31.14661927	      2.11570631	     -0.52693141	    -13.80050533	      8.66882454	      0.75797211	      0.00000000	     -5.47717431	     -0.88078946	      6.75762880	    -29.25302189	     16.23557248	      9.10969570	      0.00000000	    -14.19441892	      2.75736228	     -2.54413889
      2.43000000	      7.40807195	      3.26543242	    184.74911113	      3.82536975	      0.96961367	     -0.14429974	     30.39503757	      2.94738362	      0.49528208	    -13.50327344	      8.19745259	     -0.69576100	      0.00000000	     -4.78370809	     -1.66829180	      5.96508491	    -31.05830594	     14.02126063	      9.33131542	      0.00000000	    -14.09235079	      3.35654627	     -2.22531552
      2.44000000	      7.41741047	      3.57085373	    184.65817135	      3.81315985	      0.97145528	     -0.14636925	     29.79596262	      3.50203806	      1.03949784	    -13.76610871	      8.41095246	     -0.98879502	      0.00000000	     -4.05060378	     -2.22057466	      5.23804427	    -32.99003707	     11.66303257	      9.71302800	      0.00000000	    -13.89749586	      3.85482166	     -2.11440212
      2.45000000	      7.38417676	      3.85983137	    184.55867659	      3.80089919	      0.97348687	     -0.14857936	     29.16637561	      4.04147137	      0.92372172	    -13.80113625	      8.06949346	     -0.98218085	      0.00000000	     -3.21315173	     -2.82999240	      4.43018656	    -35.08716164	      8.98447185	     10.16191443	      0.00000000	    -13.77736699	      4.25846197	     -1.97958161
      2.46000000	      7.28836291	      4.09232892	    184.45909204	      3.78857551	      0.97548050	     -0.15090300	     28.42336394	      4.55601254	      1.57477140	    -14.16354106	      8.41350617	     -1.44142409	      0.00000000	     -2.29647676	     -3.43000188	      3.62265397	    -37.40280558	      6.14068711	     10.52104596	      0.00000000	    -13.71619937	      4.55436421	     -1.81480160
      2.47000000	      7.17186284	      4.25541733	    184.34975290	      3.77633466	      0.97729857	     -0.15313004	     27.67995872	      4.94564372	      1.72546210	    -14.37985565	      8.39129900	     -1.59187136	      0.00000000	     -1.27683884	     -4.00124614	      2.82950811	    -39.85877395	      3.19705229	     11.01136315	      0.00000000	    -13.69607503	      4.82794922	     -1.69562499
